<?xml version="1.0" encoding="UTF-8"?>
<svg id="Layer_3" data-name="Layer 3" xmlns="http://www.w3.org/2000/svg" viewBox="0 0 382.16 175.04">
  <defs>
    <style>
      .cls-1 {
        fill: #fff;
      }
    </style>
  </defs>
  <g id="Layer_1" data-name="Layer 1">
    <g>
      <path class="cls-1" d="M382.16,26.38h0s-27.72,0-27.72,0l-1.57,3.17-16.62,31.7h0s-17.63-34.87-17.63-34.87h-29.1,0s-22.87,0-22.87,0v8.59c-4.78-6.24-12.08-10.78-22.77-10.78-9.3,0-17.53,3.52-23.86,9.42-6.33-5.9-14.56-9.42-23.82-9.42-10.78,0-17.99,4.54-22.77,10.78v-8.59h-24.48v111.93h25.29v-39.96c4.78,5.67,11.75,9.65,21.96,9.65,9.26,0,17.48-3.51,23.82-9.43,6.32,5.91,14.53,9.43,23.79,9.43,10.78,0,18.07-4.46,22.86-10.7v8.59h24.56V29.52l31.29,57.97h0s-25.43,48.52-25.43,48.52h.02s-1.34,2.48-1.34,2.48h0,0s6.04,0,6.04,0h21.68l56.04-107.05,2.64-5.04h0ZM190.12,84.33c-9.97,0-16.94-7.7-16.94-18.24s6.97-18.24,16.94-18.24c6.91,0,12.26,3.61,14.99,9.16,1.86,3.78,1.59,7.89,1.83,11.97-1.15,8.9-7.58,15.34-16.82,15.34ZM249.88,84.33c-6.87,0-12.2-3.62-14.93-9.19-.91-1.85-1.41-3.88-1.62-5.93-.19-1.86-.43-4.21-.19-6.06,1.17-8.88,7.58-15.29,16.73-15.29,9.97,0,17.02,7.7,17.02,18.24s-7.05,18.24-17.02,18.24Z"/>
      <path class="cls-1" d="M136.85,68.42C136.85,30.69,106.15,0,68.42,0S0,30.69,0,68.42s28.58,66.26,64.49,68.3l-6.07,13.62h0c7.02,4.72,15.19,9.23,24.51,13.53.21.1.44.19.65.29,9.16,4.17,19.4,7.8,30.75,10.87h0s0,0,0,0l8.71-28.14h0c-11.01-1.57-21.15-3.36-30.41-5.35-2.84-.61-5.65-1.29-8.43-2.03-3.38-.89-6.71-1.87-9.99-2.94,35.02-2.95,62.63-32.38,62.63-68.16ZM24.81,68.42c0-24.05,19.56-43.61,43.61-43.61s43.61,19.56,43.61,43.61-19.56,43.61-43.61,43.61-43.61-19.56-43.61-43.61Z"/>
    </g>
  </g>
</svg>